<?xml version="1.0" standalone="no"?>
<!DOCTYPE svg PUBLIC "-//W3C//DTD SVG 20010904//EN"
 "http://www.w3.org/TR/2001/REC-SVG-20010904/DTD/svg10.dtd">
<svg version="1.0" xmlns="http://www.w3.org/2000/svg"
 width="500.000000pt" height="500.000000pt" viewBox="0 0 500.000000 500.000000"
 preserveAspectRatio="xMidYMid meet">
<metadata>
Created by potrace 1.14, written by Peter Selinger 2001-2017
</metadata>
<g transform="translate(0.000000,500.000000) scale(0.100000,-0.100000)"
fill="#000000" stroke="none">
<path d="M2409 4942 c25 -85 -18 -162 -181 -322 -138 -136 -167 -182 -168
-263 0 -83 62 -167 159 -217 53 -26 55 -26 34 13 -26 47 -24 168 3 227 27 59
113 151 185 201 l57 38 -5 -38 c-7 -54 22 -106 104 -182 82 -76 116 -121 129
-169 l9 -34 28 62 c83 184 47 355 -110 522 -64 68 -193 169 -237 186 -13 5
-14 1 -7 -24z"/>
<path d="M2007 3968 l-53 -83 243 -3 c134 -1 353 -1 488 0 l245 3 -55 83 -55
82 -380 0 -380 0 -53 -82z"/>
<path d="M1850 3800 l0 -30 590 0 590 0 0 30 0 30 -590 0 -590 0 0 -30z"/>
<path d="M1850 3695 l0 -25 590 0 590 0 0 25 0 25 -590 0 -590 0 0 -25z"/>
<path d="M1983 3567 c19 -29 45 -70 58 -90 l24 -37 377 0 376 0 43 68 c23 37
49 77 57 90 l14 22 -491 0 -492 0 34 -53z"/>
<path d="M2160 3360 l0 -40 280 0 280 0 0 40 0 40 -280 0 -280 0 0 -40z"/>
<path d="M2055 3319 c42 -93 50 -155 31 -229 -21 -80 -51 -132 -110 -190 -166
-164 -460 -220 -713 -135 -100 34 -218 94 -282 145 -56 44 -108 117 -118 163
-9 43 -21 32 -16 -15 16 -146 145 -274 420 -416 211 -110 280 -191 317 -374
21 -102 20 -159 -4 -254 -23 -89 -63 -160 -134 -241 l-50 -55 45 22 c105 53
237 170 306 270 81 120 136 272 153 430 14 127 26 157 116 295 170 261 185
448 49 601 l-35 39 25 -56z"/>
<path d="M2786 3318 c-57 -66 -79 -137 -74 -238 6 -113 46 -213 143 -359 74
-112 105 -185 105 -247 0 -55 30 -194 60 -277 71 -194 231 -372 420 -467 l45
-22 -49 48 c-114 113 -166 235 -166 388 1 243 85 376 310 490 157 80 243 137
316 210 77 77 115 149 120 230 l4 61 -13 -45 c-35 -121 -141 -216 -328 -294
-129 -53 -200 -68 -324 -69 -247 -1 -463 110 -547 281 -29 59 -33 76 -33 152
0 71 4 94 27 143 15 31 25 57 23 57 -2 0 -20 -19 -39 -42z"/>
<path d="M2210 2324 c0 -745 3 -934 13 -928 6 4 20 14 30 22 16 14 17 71 17
929 l0 913 -30 0 -30 0 0 -936z"/>
<path d="M2350 2340 l0 -920 26 -17 c15 -9 41 -17 59 -17 18 0 44 8 59 17 l26
17 0 920 0 920 -85 0 -85 0 0 -920z"/>
<path d="M2610 2345 c0 -902 0 -915 20 -935 11 -11 25 -20 30 -20 7 0 10 318
10 935 l0 935 -30 0 -30 0 0 -915z"/>
<path d="M794 1696 c-8 -21 -1 -49 14 -54 8 -2 12 7 12 27 0 33 -17 51 -26 27z"/>
<path d="M726 1605 c-6 -22 -9 -23 -25 -13 -15 9 -25 8 -48 -7 l-28 -19 31 -8
c40 -10 65 -60 74 -148 4 -36 8 -63 10 -60 1 3 5 53 9 112 6 89 11 113 29 138
l23 30 -35 0 c-28 0 -35 -4 -40 -25z"/>
<path d="M623 1458 c-19 -25 -21 -47 -12 -116 10 -69 9 -69 -20 -101 -33 -36
-46 -83 -38 -137 4 -25 2 -34 -9 -34 -8 0 -14 -7 -14 -16 0 -23 20 -55 31 -49
5 4 9 -3 9 -13 0 -11 7 -25 15 -32 12 -10 16 -9 21 4 3 9 4 25 1 35 -3 13 0
17 12 14 9 -2 27 7 39 20 27 28 30 67 13 166 -13 82 -7 93 9 14 38 -201 37
-198 100 -267 l58 -65 12 32 c15 40 70 200 70 203 0 1 -11 2 -25 2 -22 0 -27
-9 -47 -69 -12 -38 -25 -69 -29 -69 -20 0 -68 74 -78 119 -28 130 -34 193 -23
212 17 26 15 37 -2 14 -12 -17 -14 -12 -25 47 -6 35 -11 72 -11 81 0 20 -43
23 -57 5z m39 -132 c2 -19 0 -32 -4 -30 -8 5 -12 64 -4 64 2 0 6 -15 8 -34z
m-27 -152 c6 -59 5 -78 -6 -85 -21 -13 -49 19 -49 57 0 34 28 104 41 104 4 0
11 -34 14 -76z m-45 -145 c0 -5 -4 -9 -10 -9 -5 0 -10 7 -10 16 0 8 5 12 10 9
6 -3 10 -10 10 -16z"/>
<path d="M4391 1424 c-1 -12 -13 -43 -27 -68 -21 -37 -26 -60 -26 -109 0 -38
-5 -69 -14 -81 -7 -11 -16 -18 -18 -15 -2 2 -20 42 -39 89 -27 63 -36 78 -36
57 -1 -16 -6 -37 -12 -48 -7 -14 -7 -24 -1 -32 6 -7 20 -36 31 -65 l21 -53
-32 -39 c-18 -22 -36 -40 -39 -40 -4 0 -12 20 -19 44 -14 52 -40 79 -64 70
-24 -9 -46 -57 -46 -102 0 -35 -7 -46 -84 -120 -46 -45 -88 -82 -93 -82 -5 0
-15 21 -22 48 l-13 47 -13 -38 c-7 -21 -16 -41 -19 -44 -3 -3 1 -11 8 -18 7
-7 18 -38 26 -69 12 -51 12 -58 -5 -76 -10 -11 -21 -20 -24 -20 -4 0 -26 76
-51 170 -25 94 -47 170 -50 170 -9 0 -30 -62 -24 -72 3 -5 17 -49 30 -99 21
-80 22 -93 10 -117 -20 -39 -27 -101 -19 -151 l8 -44 104 83 c183 147 405 382
584 617 l47 62 -39 83 c-23 48 -40 74 -40 62z m8 -160 c-10 -20 -14 -22 -21
-10 -4 8 -3 27 3 43 10 26 11 26 21 9 7 -13 7 -25 -3 -42z m-253 -247 c13 -38
13 -39 -28 -88 -41 -49 -191 -189 -202 -189 -22 0 8 39 98 129 94 94 103 106
95 128 -5 13 -9 33 -9 44 0 34 32 17 46 -24z m-368 -398 c-15 -10 -23 14 -13
39 6 14 8 13 16 -7 7 -18 6 -27 -3 -32z"/>
<path d="M1382 1038 c-12 -58 -100 -422 -108 -451 -5 -16 -9 -16 -42 9 -46 34
-52 43 -52 72 0 20 4 22 23 17 39 -12 42 -11 41 25 -1 45 -31 181 -42 192 -12
12 -62 -1 -69 -18 -3 -8 -14 -14 -24 -14 -10 0 -26 -11 -35 -24 -14 -23 -14
-27 4 -53 52 -73 27 -104 -34 -42 l-38 39 23 77 c13 43 25 85 28 94 4 13 -1
16 -20 12 -22 -4 -29 -18 -59 -111 -28 -88 -37 -108 -55 -110 -13 -2 -27 6
-37 20 -25 35 -19 5 7 -33 26 -39 64 -50 84 -23 11 16 17 13 63 -30 42 -39 53
-45 69 -36 28 15 31 13 31 -16 0 -17 12 -38 33 -58 40 -37 116 -91 121 -85 2
2 29 114 60 249 31 135 61 253 67 263 10 18 -7 87 -22 87 -3 0 -11 -24 -17
-52z m-192 -230 c0 -18 3 -43 6 -54 5 -19 2 -21 -21 -17 -15 3 -32 17 -40 34
-18 35 -19 39 -1 39 8 0 16 7 20 15 11 29 36 17 36 -17z"/>
<path d="M1460 1047 c0 -4 -29 -138 -65 -298 -36 -160 -65 -293 -63 -294 16
-13 91 -56 93 -53 2 2 -7 24 -19 50 l-23 47 38 178 c21 98 45 208 54 244 14
58 14 69 1 100 -9 19 -15 31 -16 26z"/>
<path d="M3396 933 c-7 -17 6 -16 30 1 18 14 18 15 -3 13 -12 -1 -25 -7 -27
-14z"/>
<path d="M745 881 c-7 -13 12 -51 26 -51 14 0 7 52 -8 57 -6 2 -14 -1 -18 -6z"/>
<path d="M1810 861 c5 -11 10 -29 10 -40 0 -16 6 -21 24 -21 15 0 33 -11 45
-26 32 -40 27 -99 -14 -190 -19 -42 -39 -101 -44 -130 -8 -56 2 -152 20 -185
14 -27 0 -25 -88 16 l-76 35 7 52 c4 29 10 64 13 78 6 22 5 24 -10 11 -10 -8
-27 -11 -42 -7 -20 5 -32 0 -55 -23 -17 -16 -30 -38 -30 -48 0 -10 -3 -28 -6
-40 -5 -18 1 -25 35 -43 36 -18 40 -23 31 -40 -14 -26 -35 -25 -54 2 -11 15
-16 18 -16 7 0 -8 7 -25 16 -37 26 -37 89 -21 99 25 1 1 44 -16 98 -38 99 -40
333 -109 373 -109 21 0 22 5 28 113 17 290 27 433 32 449 3 9 -4 30 -14 48
l-20 31 -6 -63 c-3 -35 -10 -137 -16 -228 -16 -269 -18 -282 -44 -278 -11 2
-20 8 -20 13 1 6 5 54 8 108 l7 98 -23 -23 c-26 -26 -25 -23 -27 -98 -2 -78
-9 -87 -63 -71 -53 16 -74 34 -100 86 -34 65 -28 144 17 246 70 160 55 278
-40 319 -59 25 -69 25 -55 1z m-160 -491 c0 -33 -7 -37 -35 -16 -16 12 -17 16
-6 30 22 26 41 19 41 -14z"/>
<path d="M3405 858 c3 -12 25 -125 49 -251 23 -125 46 -230 49 -234 4 -3 27 8
52 24 l46 30 -28 13 c-16 7 -32 14 -37 14 -6 1 -28 90 -50 199 -35 169 -44
199 -64 213 -22 15 -23 15 -17 -8z"/>
<path d="M3687 853 c-10 -10 -8 -53 2 -53 6 0 9 -12 8 -27 -1 -19 3 -28 13
-28 9 0 16 11 18 28 2 16 -2 27 -8 27 -7 0 -10 7 -6 15 10 28 -10 56 -27 38z"/>
<path d="M3140 842 c1 -4 16 -115 34 -247 29 -211 32 -243 20 -267 -8 -15 -14
-33 -14 -41 0 -8 -7 -18 -16 -21 -37 -14 -42 -7 -49 71 -7 72 -22 145 -24 114
-1 -8 -7 -22 -15 -30 -11 -12 -12 -27 -6 -61 14 -68 12 -130 -2 -130 -7 0 -23
-3 -34 -6 -21 -5 -22 -1 -29 101 l-7 107 -27 -33 c-25 -30 -27 -35 -14 -58 7
-14 13 -51 13 -82 l0 -57 -39 -9 -39 -10 -5 56 c-3 31 -14 160 -23 287 l-18
232 -21 -32 c-15 -21 -19 -37 -14 -51 7 -18 13 -101 35 -456 l7 -106 66 14
c36 9 111 30 166 49 98 33 100 33 114 14 29 -42 92 -11 105 51 9 44 -3 85 -33
111 -25 23 -28 37 -55 226 -16 111 -26 213 -24 225 4 19 -1 26 -24 35 -15 5
-28 7 -28 4z m119 -559 c11 -21 -3 -53 -24 -53 -10 0 -15 10 -15 28 0 43 21
57 39 25z"/>
<path d="M2236 688 c-6 -56 -26 -456 -26 -529 0 -63 6 -69 65 -69 l34 0 -22
34 c-12 18 -26 31 -31 29 -8 -5 -1 225 13 432 6 87 5 103 -10 123 l-18 23 -5
-43z"/>
<path d="M3431 539 c0 -9 -16 -32 -35 -51 -41 -42 -57 -95 -49 -154 3 -24 7
-44 9 -44 2 0 19 8 39 17 42 20 51 14 33 -24 -10 -20 -21 -28 -40 -28 -21 1
-24 -2 -16 -12 15 -19 52 -16 72 6 33 36 35 72 11 192 -12 63 -23 107 -24 98z
m-11 -134 c0 -27 -34 -53 -45 -35 -8 12 21 60 35 60 6 0 10 -11 10 -25z"/>
<path d="M2033 474 c-3 -8 1 -23 10 -32 15 -14 17 -14 23 1 8 21 -1 47 -16 47
-6 0 -13 -7 -17 -16z"/>
<path d="M2450 263 l0 -83 98 0 c53 0 114 3 134 6 35 6 37 9 40 48 2 28 8 41
18 41 11 0 16 -14 18 -56 4 -69 8 -67 -175 -76 l-133 -6 0 -30 0 -30 143 6
c78 4 158 11 177 15 l35 8 -4 89 c-4 98 -20 145 -51 145 -23 0 -50 -36 -50
-66 0 -25 -36 -34 -142 -34 -67 0 -68 0 -68 28 0 15 -9 38 -20 52 l-20 25 0
-82z"/>
<path d="M3077 113 c-13 -12 -7 -53 7 -53 17 0 28 24 20 45 -7 16 -17 19 -27
8z"/>
<path d="M2970 81 c-18 -5 -25 -14 -25 -31 0 -22 4 -25 30 -22 32 4 47 18 42
41 -3 18 -15 21 -47 12z"/>
</g>
</svg>
